<svg width="359" height="360" viewBox="0 0 359 360" fill="none" xmlns="http://www.w3.org/2000/svg">
<g filter="url(#filter0_d_0_282)">
<path d="M315 345C251.646 345 189.919 324.944 138.664 287.705L315 45L315 345Z" fill="url(#paint0_linear_0_282)" fill-opacity="0.65"/>
<path d="M138.664 287.705C87.4101 250.467 49.2604 197.958 29.683 137.705L315 45L138.664 287.705Z" fill="url(#paint1_linear_0_282)" fill-opacity="0.65"/>
<path d="M29.683 137.705C10.1056 77.452 10.1056 12.5479 29.683 -47.7051L315 45L29.683 137.705Z" fill="url(#paint2_linear_0_282)" fill-opacity="0.65"/>
<path d="M29.683 -47.7051C49.2604 -107.958 87.4102 -160.467 138.664 -197.705L315 45L29.683 -47.7051Z" fill="url(#paint3_linear_0_282)" fill-opacity="0.65"/>
<path d="M138.664 -197.705C189.919 -234.944 251.646 -255 315 -255L315 45L138.664 -197.705Z" fill="url(#paint4_linear_0_282)" fill-opacity="0.65"/>
<path d="M315 -255C378.354 -255 440.081 -234.944 491.336 -197.705L315 45L315 -255Z" fill="url(#paint5_linear_0_282)" fill-opacity="0.65"/>
<path d="M491.336 -197.705C542.59 -160.467 580.74 -107.958 600.317 -47.7051L315 45L491.336 -197.705Z" fill="url(#paint6_linear_0_282)" fill-opacity="0.65"/>
<path d="M600.317 -47.7051C619.894 12.5479 619.894 77.4521 600.317 137.705L315 45L600.317 -47.7051Z" fill="url(#paint7_linear_0_282)" fill-opacity="0.65"/>
<path d="M600.317 137.705C580.74 197.958 542.59 250.467 491.335 287.705L315 45L600.317 137.705Z" fill="url(#paint8_linear_0_282)" fill-opacity="0.65"/>
<path d="M491.335 287.705C440.081 324.944 378.354 345 315 345L315 45L491.335 287.705Z" fill="url(#paint9_linear_0_282)" fill-opacity="0.65"/>
<g filter="url(#filter1_d_0_282)">
<ellipse cx="315" cy="45" rx="24" ry="24" transform="rotate(90 315 45)" fill="white"/>
</g>
<circle cx="315" cy="45" r="293" transform="rotate(90 315 45)" stroke="white" stroke-width="14"/>
</g>
<defs>
<filter id="filter0_d_0_282" x="0" y="-270" width="630" height="630" filterUnits="userSpaceOnUse" color-interpolation-filters="sRGB">
<feFlood flood-opacity="0" result="BackgroundImageFix"/>
<feColorMatrix in="SourceAlpha" type="matrix" values="0 0 0 0 0 0 0 0 0 0 0 0 0 0 0 0 0 0 127 0" result="hardAlpha"/>
<feOffset/>
<feGaussianBlur stdDeviation="7.5"/>
<feComposite in2="hardAlpha" operator="out"/>
<feColorMatrix type="matrix" values="0 0 0 0 0 0 0 0 0 0 0 0 0 0 0 0 0 0 0.05 0"/>
<feBlend mode="normal" in2="BackgroundImageFix" result="effect1_dropShadow_0_282"/>
<feBlend mode="normal" in="SourceGraphic" in2="effect1_dropShadow_0_282" result="shape"/>
</filter>
<filter id="filter1_d_0_282" x="281" y="11" width="68" height="68" filterUnits="userSpaceOnUse" color-interpolation-filters="sRGB">
<feFlood flood-opacity="0" result="BackgroundImageFix"/>
<feColorMatrix in="SourceAlpha" type="matrix" values="0 0 0 0 0 0 0 0 0 0 0 0 0 0 0 0 0 0 127 0" result="hardAlpha"/>
<feOffset/>
<feGaussianBlur stdDeviation="5"/>
<feComposite in2="hardAlpha" operator="out"/>
<feColorMatrix type="matrix" values="0 0 0 0 0 0 0 0 0 0 0 0 0 0 0 0 0 0 0.15 0"/>
<feBlend mode="normal" in2="BackgroundImageFix" result="effect1_dropShadow_0_282"/>
<feBlend mode="normal" in="SourceGraphic" in2="effect1_dropShadow_0_282" result="shape"/>
</filter>
<linearGradient id="paint0_linear_0_282" x1="615" y1="45" x2="315" y2="45" gradientUnits="userSpaceOnUse">
<stop stop-color="#2B56AA"/>
<stop offset="1" stop-color="#3532D6"/>
</linearGradient>
<linearGradient id="paint1_linear_0_282" x1="615" y1="45" x2="315" y2="45" gradientUnits="userSpaceOnUse">
<stop stop-color="#3160BB"/>
<stop offset="1" stop-color="#504DE2"/>
</linearGradient>
<linearGradient id="paint2_linear_0_282" x1="615" y1="45" x2="315" y2="45" gradientUnits="userSpaceOnUse">
<stop stop-color="#2B56AA"/>
<stop offset="1" stop-color="#3532D6"/>
</linearGradient>
<linearGradient id="paint3_linear_0_282" x1="615" y1="45" x2="315" y2="45" gradientUnits="userSpaceOnUse">
<stop stop-color="#3160BB"/>
<stop offset="1" stop-color="#504DE2"/>
</linearGradient>
<linearGradient id="paint4_linear_0_282" x1="615" y1="45" x2="315" y2="45" gradientUnits="userSpaceOnUse">
<stop stop-color="#2B56AA"/>
<stop offset="1" stop-color="#3532D6"/>
</linearGradient>
<linearGradient id="paint5_linear_0_282" x1="615" y1="45" x2="315" y2="45" gradientUnits="userSpaceOnUse">
<stop stop-color="#3160BB"/>
<stop offset="1" stop-color="#504DE2"/>
</linearGradient>
<linearGradient id="paint6_linear_0_282" x1="615" y1="45" x2="315" y2="45" gradientUnits="userSpaceOnUse">
<stop stop-color="#2B56AA"/>
<stop offset="1" stop-color="#3532D6"/>
</linearGradient>
<linearGradient id="paint7_linear_0_282" x1="615" y1="45" x2="315" y2="45" gradientUnits="userSpaceOnUse">
<stop stop-color="#3160BB"/>
<stop offset="1" stop-color="#504DE2"/>
</linearGradient>
<linearGradient id="paint8_linear_0_282" x1="615" y1="45" x2="315" y2="45" gradientUnits="userSpaceOnUse">
<stop stop-color="#2B56AA"/>
<stop offset="1" stop-color="#3532D6"/>
</linearGradient>
<linearGradient id="paint9_linear_0_282" x1="615" y1="45" x2="315" y2="45" gradientUnits="userSpaceOnUse">
<stop stop-color="#3160BB"/>
<stop offset="1" stop-color="#504DE2"/>
</linearGradient>
</defs>
</svg>
